<svg xmlns="http://www.w3.org/2000/svg" xmlns:xlink="http://www.w3.org/1999/xlink" fill="none" version="1.1" width="14" height="16" viewBox="0 0 14 16"><defs><clipPath id="master_svg0_3_642"><rect x="0" y="0" width="14" height="16" rx="0"/></clipPath></defs><g clip-path="url(#master_svg0_3_642)"><g transform="matrix(1,0,0,-1,0,28.6875)"><g><path d="M13.7188,19.625Q14,19.9375,14,20.34375Q14,20.75,13.7188,21.0625L8.71875,26.06255Q8.40625,26.34375,8,26.34375Q7.59375,26.34375,7.28125,26.06255Q7,25.74995,7,25.34375Q7,24.93755,7.28125,24.62495L10.5938,21.34375L1,21.34375Q0.5625,21.34375,0.28125,21.0625Q0,20.78125,0,20.34375Q0,19.90625,0.28125,19.625Q0.5625,19.34375,1,19.34375L10.5938,19.34375L7.28125,16.0625Q7,15.75,7,15.34375Q7,14.9375,7.28125,14.625Q7.59375,14.34375,8,14.34375Q8.40625,14.34375,8.71875,14.625L13.7188,19.625Z" fill="#000000" fill-opacity="1" style="mix-blend-mode:passthrough"/></g></g></g></svg>