<svg xmlns="http://www.w3.org/2000/svg" xmlns:xlink="http://www.w3.org/1999/xlink" fill="none" version="1.1" width="19.375" height="20" viewBox="0 0 19.375 20"><defs><clipPath id="master_svg0_3_627"><rect x="0" y="0" width="19.375" height="20" rx="0"/></clipPath></defs><g clip-path="url(#master_svg0_3_627)"><g transform="matrix(1,0,0,-1,0,39.30242919921875)"><g><path d="M6.48438,23.325874599609374Q6.44531,23.169624599609374,6.28906,23.169624599609374Q6.05469,23.169624599609374,6.05469,23.325874599609374Q6.09375,23.443064599609375,6.25,23.443064599609375Q6.44531,23.443064599609375,6.48438,23.325874599609374ZM5.27344,23.482124599609374Q5.23438,23.364944599609373,5.42969,23.286814599609375Q5.625,23.247754599609376,5.66406,23.364944599609373Q5.70312,23.521194599609373,5.50781,23.560254599609376Q5.3125,23.599314599609375,5.27344,23.482124599609374ZM6.99219,23.560254599609376Q6.79688,23.521194599609373,6.79688,23.364944599609373Q6.83594,23.247754599609376,7.03125,23.247754599609376Q7.22656,23.325874599609374,7.22656,23.443064599609375Q7.1875,23.560254599609376,6.99219,23.560254599609376ZM9.57031,38.52121459960938Q5.39062,38.44311459960937,2.73438,35.78681459960937Q0.078125,33.13061459960937,0,28.989944599609373Q0.0390625,25.669624599609374,1.83594,23.169624599609374Q3.63281,20.669634599609374,6.64062,19.654004839609374Q7.34375,19.614942299609375,7.30469,20.122754599609376Q7.30469,20.279004599609376,7.30469,20.708694599609373Q7.30469,21.607134599609374,7.30469,22.505564599609375Q7.22656,22.505564599609375,6.5625,22.427444599609373Q5.85938,22.388374599609374,5.07812,22.583694599609373Q4.29688,22.818064599609375,3.98438,23.677444599609373Q3.98438,23.755564599609375,3.67188,24.302444599609373Q3.35938,24.810254599609376,2.89062,25.122754599609376Q2.8125,25.161814599609375,2.57812,25.435254599609376Q2.30469,25.669624599609374,2.96875,25.708694599609373Q3.00781,25.747754599609376,3.51562,25.552444599609373Q4.02344,25.396194599609373,4.45312,24.693064599609375Q5.15625,23.638374599609374,5.97656,23.638374599609374Q6.83594,23.638374599609374,7.30469,23.872754599609376Q7.46094,24.810254599609376,7.92969,25.200874599609374Q6.21094,25.279004599609376,4.92188,26.060254599609376Q3.63281,26.802444599609373,3.55469,29.536814599609375Q3.55469,30.318114599609373,3.78906,30.825914599609376Q3.98438,31.333714599609372,4.45312,31.802414599609374Q4.375,32.03681459960937,4.29688,32.73991459960938Q4.21875,33.44311459960937,4.57031,34.45871459960937Q5.27344,34.575914599609376,6.21094,34.029014599609376Q7.1875,33.52121459960937,7.26562,33.404014599609376Q8.4375,33.75561459960937,9.72656,33.75561459960937Q10.9766,33.75561459960937,12.1875,33.404014599609376Q12.1875,33.44311459960937,12.6953,33.75561459960937Q13.1641,34.06811459960937,13.7891,34.30241459960938Q14.4141,34.575914599609376,14.8828,34.45871459960937Q15.2344,33.44311459960937,15.1562,32.73991459960938Q15.0781,32.03681459960937,14.9609,31.802414599609374Q15.4297,31.333714599609372,15.7031,30.825914599609376Q15.9766,30.318114599609373,15.9766,29.536814599609375Q15.9375,27.661814599609375,15.3125,26.763374599609374Q14.6484,25.904004599609376,13.6328,25.591504599609376Q12.6172,25.279004599609376,11.4844,25.200874599609374Q12.1094,24.771194599609373,12.1484,23.404004599609376Q12.1484,21.958694599609373,12.1484,20.825884599609374Q12.1484,20.318067599609375,12.1484,20.122754599609376Q12.1094,19.614942299609375,12.8125,19.654004839609374Q15.7812,20.669634599609374,17.5781,23.169624599609374Q19.3359,25.669624599609374,19.375,28.989944599609373Q19.3359,31.724314599609375,18.0469,33.872714599609374Q16.7188,36.02121459960938,14.5312,37.27121459960938Q12.3047,38.482114599609375,9.57031,38.52121459960938ZM3.78906,25.044624599609374Q3.71094,24.966504599609376,3.82812,24.849314599609375Q3.94531,24.732124599609374,4.02344,24.810254599609376Q4.10156,24.888374599609374,3.98438,25.005564599609375Q3.90625,25.122754599609376,3.78906,25.044624599609374ZM3.35938,25.357124599609374Q3.35938,25.279004599609376,3.47656,25.200874599609374Q3.59375,25.161814599609375,3.63281,25.239944599609373Q3.67188,25.318064599609375,3.55469,25.396194599609373Q3.4375,25.435254599609376,3.35938,25.357124599609374ZM4.64844,23.989944599609373Q4.57031,23.872754599609376,4.6875,23.716504599609376Q4.84375,23.599314599609375,4.96094,23.677444599609373Q5,23.794624599609374,4.88281,23.950874599609374Q4.72656,24.068064599609375,4.64844,23.989944599609373ZM4.17969,24.536814599609375Q4.10156,24.458694599609373,4.17969,24.302444599609373Q4.29688,24.185254599609376,4.41406,24.224314599609375Q4.49219,24.302444599609373,4.41406,24.458694599609373Q4.29688,24.614944599609373,4.17969,24.536814599609375Z" fill="#9CA3AF" fill-opacity="1" style="mix-blend-mode:passthrough"/></g></g></g></svg>