<svg xmlns="http://www.w3.org/2000/svg" xmlns:xlink="http://www.w3.org/1999/xlink" fill="none" version="1.1" width="20" height="20" viewBox="0 0 20 20"><defs><clipPath id="master_svg0_3_637"><rect x="0" y="0" width="20" height="20" rx="0"/></clipPath></defs><g clip-path="url(#master_svg0_3_637)"><g transform="matrix(1,0,0,-1,0,37.1875)"><g><path d="M17.9297,30.78125Q17.9688,30.507849999999998,17.9688,30.27345Q17.9688,27.5,16.6016,24.84375Q15.2734,22.1875,12.6562,20.42969Q10.0781,18.671875,6.28906,18.59375Q2.77344,18.6328125,0,20.42969Q0.46875,20.39063,0.976562,20.39063Q3.90625,20.42969,6.09375,22.14844Q4.6875,22.1875,3.67188,22.96875Q2.65625,23.75,2.26562,24.96094Q2.61719,24.92187,3.00781,24.92187Q3.59375,24.92187,4.10156,25.03906Q2.65625,25.35156,1.75781,26.44531Q0.859375,27.53906,0.820312,29.06255L0.820312,29.14065Q1.64062,28.67185,2.65625,28.59375Q0.9375,29.804650000000002,0.820312,32.03125Q0.859375,33.16405,1.40625,34.10155Q2.92969,32.22655,5.11719,31.09375Q7.26562,29.96095,9.84375,29.804650000000002Q9.76562,30.27345,9.76562,30.742150000000002Q9.80469,32.46095,10.9375,33.63285Q12.1094,34.804649999999995,13.8281,34.84375Q15.6641,34.804649999999995,16.8359,33.55465Q18.2422,33.82815,19.4531,34.53125Q18.9453,33.08595,17.6562,32.26565Q18.8672,32.42185,20,32.92965Q19.1406,31.679650000000002,17.9297,30.78125Z" fill="#9CA3AF" fill-opacity="1" style="mix-blend-mode:passthrough"/></g></g></g></svg>