<svg xmlns="http://www.w3.org/2000/svg" xmlns:xlink="http://www.w3.org/1999/xlink" fill="none" version="1.1" width="17.5" height="20" viewBox="0 0 17.5 20"><defs><clipPath id="master_svg0_3_632"><rect x="0" y="0" width="17.5" height="20" rx="0"/></clipPath></defs><g clip-path="url(#master_svg0_3_632)"><g transform="matrix(1,0,0,-1,0,38.4375)"><g><path d="M16.25,36.71875L1.25,36.71875L16.25,36.71875L1.25,36.71875Q0.703125,36.71875,0.351562,36.367149999999995Q0,35.97655,0,35.46875L0,20.46875Q0,19.960938,0.351562,19.570312Q0.703125,19.21875,1.25,19.21875L16.25,19.21875Q16.7969,19.21875,17.1484,19.570312Q17.5,19.960938,17.5,20.46875L17.5,35.46875Q17.5,35.97655,17.1484,36.367149999999995Q16.7969,36.71875,16.25,36.71875ZM5.27344,21.71875L2.69531,21.71875L5.27344,21.71875L2.69531,21.71875L2.69531,30.07815L5.3125,30.07815L5.3125,21.71875L5.27344,21.71875ZM3.98438,31.21095Q3.35938,31.21095,2.92969,31.64065Q2.5,32.07035,2.5,32.69535Q2.5,33.35935,2.92969,33.78905Q3.35938,34.21875,3.98438,34.21875Q4.64844,34.21875,5.03906,33.78905Q5.46875,33.35935,5.50781,32.69535Q5.46875,32.07035,5.03906,31.64065Q4.64844,31.21095,3.98438,31.21095ZM15,21.71875L12.4219,21.71875L15,21.71875L12.4219,21.71875L12.4219,25.78125Q12.4609,26.5625,12.2266,27.26563Q12.0312,27.92969,11.0547,28.00781Q10.0781,27.96875,9.76562,27.34375Q9.49219,26.71875,9.53125,25.85937L9.53125,21.71875L6.91406,21.71875L6.91406,30.07815L9.41406,30.07815L9.41406,28.94531L9.45312,28.94531Q9.6875,29.45315,10.3125,29.84375Q10.9375,30.27345,11.9141,30.27345Q13.8281,30.23435,14.4531,29.14063Q15.0781,28.00781,15,26.28906L15,21.71875Z" fill="#9CA3AF" fill-opacity="1" style="mix-blend-mode:passthrough"/></g></g></g></svg>